<svg xmlns="http://www.w3.org/2000/svg" width="180" height="36" fill="none"><path fill="#7318E7" d="M15.408 35.684c-2.352 0-4.404-.384-6.156-1.152-1.752-.792-3.204-1.848-4.356-3.168a13.413 13.413 0 0 1-2.52-4.392 14.777 14.777 0 0 1-.828-4.824v-.792c0-1.656.276-3.276.828-4.86a13.422 13.422 0 0 1 2.484-4.32C5.988 10.88 7.38 9.848 9.036 9.08c1.68-.768 3.612-1.152 5.796-1.152 2.376 0 4.476.444 6.3 1.332 1.824.864 3.288 2.076 4.392 3.636 1.104 1.536 1.74 3.324 1.908 5.364h-5.904a4.872 4.872 0 0 0-1.152-2.52c-.6-.72-1.38-1.284-2.34-1.692-.936-.408-2.004-.612-3.204-.612-1.152 0-2.184.204-3.096.612a6.775 6.775 0 0 0-2.304 1.728c-.624.744-1.104 1.632-1.44 2.664-.312 1.008-.468 2.124-.468 3.348 0 1.272.168 2.436.504 3.492a8.105 8.105 0 0 0 1.548 2.7c.672.744 1.5 1.32 2.484 1.728 1.008.408 2.124.612 3.348.612 1.632 0 3.048-.336 4.248-1.008 1.2-.672 2.064-1.56 2.592-2.664l-.72 4.032v-6.264h5.436v5.616c-1.128 1.824-2.688 3.228-4.68 4.212-1.968.96-4.26 1.44-6.876 1.44Zm-.756-10.116V21.32h14.472v4.248H14.652ZM44.532 35v-5.832h-.972v-6.336c0-1.008-.24-1.764-.72-2.268-.48-.504-1.248-.756-2.304-.756a107.513 107.513 0 0 0-4.752.144c-.912.048-1.74.096-2.484.144v-4.86c.552-.048 1.2-.096 1.944-.144a73.92 73.92 0 0 1 4.536-.144c2.016 0 3.708.288 5.076.864 1.392.576 2.448 1.452 3.168 2.628.72 1.152 1.08 2.64 1.08 4.464V35h-4.572Zm-6.3.504c-1.416 0-2.664-.252-3.744-.756-1.056-.504-1.884-1.224-2.484-2.16-.6-.96-.9-2.1-.9-3.42 0-1.44.372-2.616 1.116-3.528.744-.936 1.788-1.62 3.132-2.052 1.344-.456 2.892-.684 4.644-.684h4.212v3.204H39.96c-1.008 0-1.788.252-2.34.756-.528.48-.792 1.14-.792 1.98 0 .792.264 1.44.792 1.944.552.48 1.332.72 2.34.72.648 0 1.224-.108 1.728-.324.528-.24.96-.636 1.296-1.188.336-.552.528-1.32.576-2.304l1.368 1.44c-.12 1.368-.456 2.52-1.008 3.456a5.379 5.379 0 0 1-2.232 2.16c-.936.504-2.088.756-3.456.756ZM53.992 35V15.272h4.571v8.496h-.324c0-2.016.252-3.696.756-5.04.504-1.344 1.26-2.352 2.268-3.024 1.008-.696 2.244-1.044 3.708-1.044h.252c1.488 0 2.724.348 3.708 1.044 1.008.672 1.764 1.68 2.268 3.024.528 1.344.792 3.024.792 5.04h-1.404c0-2.016.252-3.696.756-5.04.528-1.344 1.296-2.352 2.304-3.024 1.008-.696 2.244-1.044 3.708-1.044h.252c1.488 0 2.736.348 3.744 1.044 1.032.672 1.812 1.68 2.34 3.024.528 1.344.792 3.024.792 5.04V35h-5.76V23.444c0-1.08-.288-1.956-.864-2.628-.552-.672-1.344-1.008-2.376-1.008-1.032 0-1.848.348-2.448 1.044-.6.672-.9 1.572-.9 2.7V35H66.34V23.444c0-1.08-.288-1.956-.864-2.628-.552-.672-1.332-1.008-2.34-1.008-1.056 0-1.884.348-2.484 1.044-.6.672-.9 1.572-.9 2.7V35h-5.76Zm44.438.684c-1.68 0-3.168-.288-4.464-.864-1.272-.576-2.34-1.344-3.204-2.304a11.064 11.064 0 0 1-1.944-3.276 11.173 11.173 0 0 1-.648-3.744v-.72c0-1.32.216-2.58.648-3.78a10.49 10.49 0 0 1 1.944-3.276c.84-.96 1.884-1.716 3.132-2.268 1.272-.576 2.712-.864 4.32-.864 2.112 0 3.888.48 5.328 1.44a9.228 9.228 0 0 1 3.348 3.708c.768 1.512 1.152 3.168 1.152 4.968v1.944h-17.46v-3.276h13.968l-1.872 1.512c0-1.176-.168-2.184-.504-3.024-.336-.84-.84-1.476-1.512-1.908-.648-.456-1.464-.684-2.448-.684-1.008 0-1.86.228-2.556.684-.696.456-1.224 1.128-1.584 2.016-.36.864-.54 1.932-.54 3.204 0 1.176.168 2.208.504 3.096.336.864.864 1.536 1.584 2.016.72.48 1.656.72 2.808.72 1.056 0 1.92-.204 2.592-.612.672-.408 1.128-.912 1.368-1.512h5.292a8.318 8.318 0 0 1-1.692 3.528c-.84 1.032-1.896 1.836-3.168 2.412-1.272.576-2.736.864-4.392.864Z"/><path fill="#000" d="M112.182 35V8.72h5.904V35h-5.904Zm5.184 0v-5.184h11.016V35h-11.016Zm15.503 0V15.272h5.76V35h-5.76Zm-2.628-15.48v-4.248h8.388v4.248h-8.388Zm4.86-6.192c-1.08 0-1.884-.276-2.412-.828-.504-.576-.756-1.296-.756-2.16 0-.888.252-1.608.756-2.16.528-.576 1.332-.864 2.412-.864 1.08 0 1.872.288 2.376.864.528.552.792 1.272.792 2.16 0 .864-.264 1.584-.792 2.16-.504.552-1.296.828-2.376.828Zm16.343 22.284c-2.808 0-5.004-.576-6.588-1.728-1.584-1.152-2.424-2.772-2.52-4.86h5.112c.096.624.468 1.188 1.116 1.692.672.48 1.668.72 2.988.72 1.008 0 1.836-.168 2.484-.504.672-.36 1.008-.864 1.008-1.512 0-.576-.252-1.032-.756-1.368-.504-.36-1.404-.612-2.7-.756l-1.548-.144c-2.376-.24-4.164-.9-5.364-1.98-1.176-1.08-1.764-2.46-1.764-4.14 0-1.392.348-2.556 1.044-3.492.696-.936 1.656-1.644 2.88-2.124 1.248-.48 2.664-.72 4.248-.72 2.544 0 4.596.564 6.156 1.692 1.56 1.104 2.376 2.712 2.448 4.824h-5.112c-.096-.648-.432-1.188-1.008-1.62-.576-.456-1.428-.684-2.556-.684-.888 0-1.596.168-2.124.504-.528.336-.792.792-.792 1.368 0 .552.228.972.684 1.26.456.288 1.2.492 2.232.612l1.548.144c2.424.264 4.308.936 5.652 2.016 1.344 1.08 2.016 2.532 2.016 4.356 0 1.32-.36 2.472-1.08 3.456-.72.96-1.74 1.704-3.06 2.232-1.32.504-2.868.756-4.644.756Zm21.48-.36c-1.992 0-3.6-.24-4.824-.72-1.224-.504-2.124-1.332-2.7-2.484-.552-1.176-.828-2.76-.828-4.752V9.944h5.364v17.568c0 .936.24 1.656.72 2.16.504.48 1.212.72 2.124.72h2.916v4.86h-2.772Zm-11.34-15.768v-4.212h14.112v4.212h-14.112Z"/></svg>